<svg width="32" height="32" viewBox="0 0 32 32" fill="none" xmlns="http://www.w3.org/2000/svg">
<path d="M16 2.66675C8.63996 2.66675 2.66663 8.64008 2.66663 16.0001C2.66663 23.3601 8.63996 29.3334 16 29.3334C23.36 29.3334 29.3333 23.3601 29.3333 16.0001C29.3333 8.64008 23.36 2.66675 16 2.66675ZM17.3333 25.3334H14.6666V22.6667H17.3333V25.3334ZM20.0933 15.0001L18.8933 16.2267C17.9333 17.2001 17.3333 18.0001 17.3333 20.0001H14.6666V19.3334C14.6666 17.8667 15.2666 16.5334 16.2266 15.5601L17.88 13.8801C18.3733 13.4001 18.6666 12.7334 18.6666 12.0001C18.6666 10.5334 17.4666 9.33341 16 9.33341C14.5333 9.33341 13.3333 10.5334 13.3333 12.0001H10.6666C10.6666 9.05341 13.0533 6.66675 16 6.66675C18.9466 6.66675 21.3333 9.05341 21.3333 12.0001C21.3333 13.1734 20.8533 14.2401 20.0933 15.0001Z" fill="black"/>
</svg>
