<svg width="32" height="32" viewBox="0 0 32 32" fill="none" xmlns="http://www.w3.org/2000/svg">
<path d="M26.6666 9.33341V22.6667H5.33329V9.33341H26.6666ZM26.6666 6.66675H5.33329C3.86663 6.66675 2.67996 7.86675 2.67996 9.33341L2.66663 22.6667C2.66663 24.1334 3.86663 25.3334 5.33329 25.3334H26.6666C28.1333 25.3334 29.3333 24.1334 29.3333 22.6667V9.33341C29.3333 7.86675 28.1333 6.66675 26.6666 6.66675ZM14.6666 10.6667H17.3333V13.3334H14.6666V10.6667ZM14.6666 14.6667H17.3333V17.3334H14.6666V14.6667ZM10.6666 10.6667H13.3333V13.3334H10.6666V10.6667ZM10.6666 14.6667H13.3333V17.3334H10.6666V14.6667ZM6.66663 14.6667H9.33329V17.3334H6.66663V14.6667ZM6.66663 10.6667H9.33329V13.3334H6.66663V10.6667ZM10.6666 18.6667H21.3333V21.3334H10.6666V18.6667ZM18.6666 14.6667H21.3333V17.3334H18.6666V14.6667ZM18.6666 10.6667H21.3333V13.3334H18.6666V10.6667ZM22.6666 14.6667H25.3333V17.3334H22.6666V14.6667ZM22.6666 10.6667H25.3333V13.3334H22.6666V10.6667Z" fill="black"/>
</svg>
